<mxfile host="65bd71144e">
    <diagram id="wleXDkbhm_6Zuc-ugeMy" name="Page-1">
        <mxGraphModel dx="1707" dy="652" grid="1" gridSize="10" guides="1" tooltips="1" connect="1" arrows="1" fold="1" page="1" pageScale="1" pageWidth="850" pageHeight="1100" math="0" shadow="0">
            <root>
                <mxCell id="0"/>
                <mxCell id="1" parent="0"/>
                <mxCell id="46" style="edgeStyle=none;html=1;strokeColor=#000000;" parent="1" source="2" target="7" edge="1">
                    <mxGeometry relative="1" as="geometry"/>
                </mxCell>
                <mxCell id="2" value="" style="shape=actor;whiteSpace=wrap;html=1;fillColor=#66B2FF;strokeColor=#000000;" parent="1" vertex="1">
                    <mxGeometry x="-780" y="55" width="70" height="110" as="geometry"/>
                </mxCell>
                <mxCell id="3" value="" style="ellipse;whiteSpace=wrap;html=1;aspect=fixed;labelBackgroundColor=none;strokeColor=#0e8088;fillColor=#b0e3e6;strokeWidth=2;" parent="1" vertex="1">
                    <mxGeometry x="-770" y="515" width="50" height="50" as="geometry"/>
                </mxCell>
                <mxCell id="4" value="" style="swimlane;childLayout=stackLayout;resizeParent=1;resizeParentMax=0;startSize=20;html=1;fillColor=#3399FF;fontColor=#000000;strokeColor=#006EAF;" parent="1" vertex="1">
                    <mxGeometry x="-660" y="30" width="900" height="580" as="geometry"/>
                </mxCell>
                <mxCell id="5" value="Controller" style="swimlane;startSize=20;html=1;fillColor=#CCCCFF;fontColor=#000000;strokeColor=#0a0a0a;gradientColor=none;swimlaneFillColor=#CCCCFF;" parent="4" vertex="1">
                    <mxGeometry y="20" width="200" height="560" as="geometry"/>
                </mxCell>
                <mxCell id="6" style="edgeStyle=none;html=1;exitX=0.5;exitY=1;exitDx=0;exitDy=0;exitPerimeter=0;entryX=0.5;entryY=0;entryDx=0;entryDy=0;entryPerimeter=0;strokeColor=#000000;fontColor=#000000;" parent="5" source="7" target="9" edge="1">
                    <mxGeometry relative="1" as="geometry"/>
                </mxCell>
                <mxCell id="7" value="&lt;span style=&quot;color: rgb(0, 0, 0);&quot;&gt;Initialisatie&lt;/span&gt;" style="shape=note;whiteSpace=wrap;html=1;backgroundOutline=1;darkOpacity=0.05;strokeColor=#36393d;fillColor=#ffff88;" parent="5" vertex="1">
                    <mxGeometry x="30" y="30" width="150" height="60" as="geometry"/>
                </mxCell>
                <mxCell id="8" style="edgeStyle=none;html=1;exitX=0.5;exitY=1;exitDx=0;exitDy=0;exitPerimeter=0;strokeColor=#000000;fontColor=#000000;" parent="5" source="9" target="10" edge="1">
                    <mxGeometry relative="1" as="geometry">
                        <mxPoint x="105" y="210" as="targetPoint"/>
                    </mxGeometry>
                </mxCell>
                <mxCell id="9" value="&lt;font color=&quot;#000000&quot;&gt;Boodschappenlijst&lt;br&gt;ophalen&lt;/font&gt;" style="shape=note;whiteSpace=wrap;html=1;backgroundOutline=1;darkOpacity=0.05;strokeColor=#36393d;fillColor=#ffff88;" parent="5" vertex="1">
                    <mxGeometry x="30" y="120" width="150" height="60" as="geometry"/>
                </mxCell>
                <mxCell id="10" value="Boodschappenlijst&lt;br&gt;tonen" style="shape=note;whiteSpace=wrap;html=1;backgroundOutline=1;darkOpacity=0.05;strokeColor=#36393d;fillColor=#ffff88;fontColor=#000000;labelBackgroundColor=none;" parent="5" vertex="1">
                    <mxGeometry x="30" y="460" width="150" height="60" as="geometry"/>
                </mxCell>
                <mxCell id="11" value="&lt;font color=&quot;#000000&quot;&gt;Business Logic&lt;/font&gt;" style="swimlane;startSize=20;html=1;fillColor=#6666FF;strokeColor=#000000;swimlaneFillColor=#6666FF;fontColor=#ffffff;" parent="4" vertex="1">
                    <mxGeometry x="200" y="20" width="500" height="560" as="geometry"/>
                </mxCell>
                <mxCell id="14" style="edgeStyle=none;html=1;entryX=0;entryY=0.5;entryDx=0;entryDy=0;entryPerimeter=0;strokeColor=#000000;fontColor=#000000;exitX=0.5;exitY=1;exitDx=0;exitDy=0;exitPerimeter=0;" parent="11" source="17" target="21" edge="1">
                    <mxGeometry relative="1" as="geometry"/>
                </mxCell>
                <mxCell id="15" style="edgeStyle=none;html=1;entryX=0;entryY=0.5;entryDx=0;entryDy=0;entryPerimeter=0;strokeColor=#000000;fontColor=#000000;exitX=0.5;exitY=1;exitDx=0;exitDy=0;exitPerimeter=0;" parent="11" source="17" target="22" edge="1">
                    <mxGeometry relative="1" as="geometry"/>
                </mxCell>
                <mxCell id="16" style="edgeStyle=none;html=1;exitX=0;exitY=0;exitDx=150;exitDy=30;exitPerimeter=0;strokeColor=#000000;fontColor=#000000;" parent="11" source="17" target="18" edge="1">
                    <mxGeometry relative="1" as="geometry"/>
                </mxCell>
                <mxCell id="70" style="edgeStyle=none;html=1;entryX=0;entryY=0.5;entryDx=0;entryDy=0;entryPerimeter=0;strokeColor=#000000;exitX=0.5;exitY=1;exitDx=0;exitDy=0;exitPerimeter=0;" parent="11" source="17" target="19" edge="1">
                    <mxGeometry relative="1" as="geometry"/>
                </mxCell>
                <mxCell id="17" value="&lt;font color=&quot;#000000&quot;&gt;Selecteer ingredient&lt;/font&gt;" style="shape=note;whiteSpace=wrap;html=1;backgroundOutline=1;darkOpacity=0.05;strokeColor=#36393d;fillColor=#ffff88;" parent="11" vertex="1">
                    <mxGeometry x="32.5" y="120" width="150" height="60" as="geometry"/>
                </mxCell>
                <mxCell id="18" value="&lt;font color=&quot;#000000&quot;&gt;ophalen&lt;br&gt;artikel&lt;/font&gt;" style="shape=note;whiteSpace=wrap;html=1;backgroundOutline=1;darkOpacity=0.05;strokeColor=#36393d;fillColor=#ffff88;" parent="11" vertex="1">
                    <mxGeometry x="270" y="120" width="150" height="60" as="geometry"/>
                </mxCell>
                <mxCell id="19" value="&lt;font color=&quot;#000000&quot;&gt;ophalen&lt;br&gt;user&lt;/font&gt;" style="shape=note;whiteSpace=wrap;html=1;backgroundOutline=1;darkOpacity=0.05;strokeColor=#36393d;fillColor=#ffff88;" parent="11" vertex="1">
                    <mxGeometry x="270" y="390" width="150" height="60" as="geometry"/>
                </mxCell>
                <mxCell id="21" value="&lt;font color=&quot;#000000&quot;&gt;bereken&lt;br&gt;totaalprijs&lt;/font&gt;" style="shape=note;whiteSpace=wrap;html=1;backgroundOutline=1;darkOpacity=0.05;strokeColor=#36393d;fillColor=#ffff88;" parent="11" vertex="1">
                    <mxGeometry x="270" y="220" width="150" height="60" as="geometry"/>
                </mxCell>
                <mxCell id="22" value="&lt;font color=&quot;#000000&quot;&gt;bereken&lt;br&gt;aantal&lt;/font&gt;" style="shape=note;whiteSpace=wrap;html=1;backgroundOutline=1;darkOpacity=0.05;strokeColor=#36393d;fillColor=#ffff88;" parent="11" vertex="1">
                    <mxGeometry x="270" y="290" width="150" height="60" as="geometry"/>
                </mxCell>
                <mxCell id="23" value="&lt;font color=&quot;#000000&quot;&gt;Model&lt;/font&gt;" style="swimlane;startSize=20;html=1;fillColor=#99CCFF;swimlaneFillColor=#99CCFF;strokeColor=#000000;" parent="4" vertex="1">
                    <mxGeometry x="700" y="20" width="200" height="560" as="geometry"/>
                </mxCell>
                <mxCell id="24" value="INGREDIENT" style="swimlane;labelBackgroundColor=none;strokeColor=#10739e;fillColor=#b1ddf0;fontColor=#000000;startSize=23;" parent="23" vertex="1">
                    <mxGeometry x="40" y="40" width="140" height="110" as="geometry"/>
                </mxCell>
                <mxCell id="56" value="&lt;font color=&quot;#000000&quot;&gt;ingredient_id&lt;br&gt;gerecht_id&lt;br&gt;artikel_id&lt;br&gt;aantal&lt;br&gt;&lt;/font&gt;" style="text;html=1;strokeColor=none;fillColor=none;align=center;verticalAlign=middle;whiteSpace=wrap;rounded=0;" parent="24" vertex="1">
                    <mxGeometry x="15" y="10" width="110" height="110" as="geometry"/>
                </mxCell>
                <mxCell id="26" value="&lt;font color=&quot;#000000&quot;&gt;Selecteer &lt;br&gt;artikel&lt;br&gt;&lt;/font&gt;" style="shape=note;whiteSpace=wrap;html=1;backgroundOutline=1;darkOpacity=0.05;strokeColor=#36393d;fillColor=#ffff88;" parent="23" vertex="1">
                    <mxGeometry x="35" y="250" width="150" height="60" as="geometry"/>
                </mxCell>
                <mxCell id="27" value="&lt;font color=&quot;#000000&quot;&gt;Selecteer&lt;br&gt;user&lt;br&gt;&lt;/font&gt;" style="shape=note;whiteSpace=wrap;html=1;backgroundOutline=1;darkOpacity=0.05;strokeColor=#36393d;fillColor=#ffff88;" parent="23" vertex="1">
                    <mxGeometry x="35" y="390" width="150" height="60" as="geometry"/>
                </mxCell>
                <mxCell id="28" style="edgeStyle=none;html=1;entryX=0.5;entryY=0;entryDx=0;entryDy=0;entryPerimeter=0;strokeColor=#000000;fontColor=#000000;" parent="4" target="17" edge="1">
                    <mxGeometry relative="1" as="geometry">
                        <Array as="points">
                            <mxPoint x="308" y="118"/>
                        </Array>
                        <mxPoint x="740" y="118" as="sourcePoint"/>
                    </mxGeometry>
                </mxCell>
                <mxCell id="29" style="edgeStyle=none;html=1;entryX=0;entryY=0;entryDx=150;entryDy=30;entryPerimeter=0;strokeColor=#000000;fontColor=#000000;" parent="4" source="17" target="9" edge="1">
                    <mxGeometry relative="1" as="geometry"/>
                </mxCell>
                <mxCell id="30" style="edgeStyle=none;html=1;exitX=0;exitY=0.5;exitDx=0;exitDy=0;exitPerimeter=0;strokeColor=#000000;fontColor=#000000;entryX=0;entryY=0;entryDx=150;entryDy=30;entryPerimeter=0;" parent="4" source="26" target="18" edge="1">
                    <mxGeometry relative="1" as="geometry">
                        <Array as="points">
                            <mxPoint x="680" y="300"/>
                            <mxPoint x="680" y="170"/>
                        </Array>
                    </mxGeometry>
                </mxCell>
                <mxCell id="68" style="edgeStyle=none;html=1;strokeColor=#000000;" parent="4" source="27" target="19" edge="1">
                    <mxGeometry relative="1" as="geometry"/>
                </mxCell>
                <mxCell id="33" value="" style="swimlane;childLayout=stackLayout;resizeParent=1;resizeParentMax=0;startSize=20;html=1;fillColor=#3399FF;fontColor=#000000;strokeColor=#006EAF;" parent="1" vertex="1">
                    <mxGeometry x="-660" y="840" width="900" height="210" as="geometry"/>
                </mxCell>
                <mxCell id="34" value="Controller" style="swimlane;startSize=20;html=1;fillColor=#CCCCFF;fontColor=#000000;strokeColor=#0a0a0a;gradientColor=none;swimlaneFillColor=#CCCCFF;" parent="33" vertex="1">
                    <mxGeometry y="20" width="200" height="190" as="geometry"/>
                </mxCell>
                <mxCell id="35" value="&lt;font color=&quot;#000000&quot;&gt;Business Logic&lt;/font&gt;" style="swimlane;startSize=20;html=1;fillColor=#6666FF;strokeColor=#000000;swimlaneFillColor=#6666FF;fontColor=#ffffff;" parent="33" vertex="1">
                    <mxGeometry x="200" y="20" width="500" height="190" as="geometry"/>
                </mxCell>
                <mxCell id="66" value="&lt;font color=&quot;#000000&quot;&gt;selecteer&lt;br&gt;user&lt;/font&gt;" style="shape=note;whiteSpace=wrap;html=1;backgroundOutline=1;darkOpacity=0.05;strokeColor=#36393d;fillColor=#ffff88;" parent="35" vertex="1">
                    <mxGeometry x="30" y="70" width="150" height="60" as="geometry"/>
                </mxCell>
                <mxCell id="36" value="&lt;font color=&quot;#000000&quot;&gt;Model&lt;/font&gt;" style="swimlane;startSize=20;html=1;fillColor=#99CCFF;swimlaneFillColor=#99CCFF;strokeColor=#000000;" parent="33" vertex="1">
                    <mxGeometry x="700" y="20" width="200" height="190" as="geometry"/>
                </mxCell>
                <mxCell id="37" value="USER" style="swimlane;labelBackgroundColor=none;strokeColor=#10739e;fillColor=#b1ddf0;fontColor=#000000;startSize=23;" parent="36" vertex="1">
                    <mxGeometry x="40" y="40" width="140" height="120" as="geometry"/>
                </mxCell>
                <mxCell id="38" value="&lt;font color=&quot;#000000&quot;&gt;user_id&lt;br&gt;user_name&lt;br&gt;password&lt;br&gt;email&lt;br&gt;afbeelding&lt;br&gt;&lt;/font&gt;" style="text;html=1;strokeColor=none;fillColor=none;align=center;verticalAlign=middle;whiteSpace=wrap;rounded=0;" parent="37" vertex="1">
                    <mxGeometry x="15" y="20" width="110" height="110" as="geometry"/>
                </mxCell>
                <mxCell id="67" style="edgeStyle=none;html=1;strokeColor=#000000;exitX=0;exitY=0.5;exitDx=0;exitDy=0;" parent="33" source="37" target="66" edge="1">
                    <mxGeometry relative="1" as="geometry"/>
                </mxCell>
                <mxCell id="47" style="edgeStyle=none;html=1;strokeColor=#000000;" parent="1" source="10" target="3" edge="1">
                    <mxGeometry relative="1" as="geometry"/>
                </mxCell>
                <mxCell id="58" value="" style="swimlane;childLayout=stackLayout;resizeParent=1;resizeParentMax=0;startSize=20;html=1;fillColor=#3399FF;fontColor=#000000;strokeColor=#006EAF;" parent="1" vertex="1">
                    <mxGeometry x="-660" y="620" width="900" height="210" as="geometry"/>
                </mxCell>
                <mxCell id="59" value="Controller" style="swimlane;startSize=20;html=1;fillColor=#CCCCFF;fontColor=#000000;strokeColor=#0a0a0a;gradientColor=none;swimlaneFillColor=#CCCCFF;" parent="58" vertex="1">
                    <mxGeometry y="20" width="200" height="190" as="geometry"/>
                </mxCell>
                <mxCell id="60" value="&lt;font color=&quot;#000000&quot;&gt;Business Logic&lt;/font&gt;" style="swimlane;startSize=20;html=1;fillColor=#6666FF;strokeColor=#000000;swimlaneFillColor=#6666FF;fontColor=#ffffff;" parent="58" vertex="1">
                    <mxGeometry x="200" y="20" width="500" height="190" as="geometry"/>
                </mxCell>
                <mxCell id="61" value="&lt;font color=&quot;#000000&quot;&gt;selecteer&lt;br&gt;artikel&lt;/font&gt;" style="shape=note;whiteSpace=wrap;html=1;backgroundOutline=1;darkOpacity=0.05;strokeColor=#36393d;fillColor=#ffff88;" parent="60" vertex="1">
                    <mxGeometry x="30" y="65" width="150" height="60" as="geometry"/>
                </mxCell>
                <mxCell id="62" value="&lt;font color=&quot;#000000&quot;&gt;Model&lt;/font&gt;" style="swimlane;startSize=20;html=1;fillColor=#99CCFF;swimlaneFillColor=#99CCFF;strokeColor=#000000;" parent="58" vertex="1">
                    <mxGeometry x="700" y="20" width="200" height="190" as="geometry"/>
                </mxCell>
                <mxCell id="63" value="ARTIKEL" style="swimlane;labelBackgroundColor=none;strokeColor=#10739e;fillColor=#b1ddf0;fontColor=#000000;startSize=23;" parent="62" vertex="1">
                    <mxGeometry x="40" y="40" width="140" height="130" as="geometry"/>
                </mxCell>
                <mxCell id="64" value="&lt;font color=&quot;#000000&quot;&gt;artikel_id&lt;br&gt;naam&lt;br&gt;omschrijving&lt;br&gt;prijs&lt;br&gt;eenheid&lt;br&gt;verpakking&lt;br&gt;&lt;/font&gt;" style="text;html=1;strokeColor=none;fillColor=none;align=center;verticalAlign=middle;whiteSpace=wrap;rounded=0;" parent="63" vertex="1">
                    <mxGeometry x="15" y="20" width="110" height="110" as="geometry"/>
                </mxCell>
                <mxCell id="65" style="edgeStyle=none;html=1;strokeColor=#000000;fontColor=#000000;" parent="58" target="61" edge="1">
                    <mxGeometry relative="1" as="geometry">
                        <mxPoint x="740" y="115" as="sourcePoint"/>
                    </mxGeometry>
                </mxCell>
            </root>
        </mxGraphModel>
    </diagram>
</mxfile>